<mxfile host="65bd71144e">
    <diagram id="e2eo_ZCm5v6GsbAuttfb" name="第 1 页">
        <mxGraphModel dx="267" dy="190" grid="1" gridSize="10" guides="1" tooltips="1" connect="1" arrows="1" fold="1" page="1" pageScale="1" pageWidth="827" pageHeight="1169" math="1" shadow="0">
            <root>
                <mxCell id="0"/>
                <mxCell id="1" parent="0"/>
                <mxCell id="2" value="Encoder" style="rounded=0;whiteSpace=wrap;html=1;fontSize=20;fillColor=#e1d5e7;strokeColor=#9673a6;fontColor=#000000;" parent="1" vertex="1">
                    <mxGeometry x="80" y="307" width="160" height="60" as="geometry"/>
                </mxCell>
                <mxCell id="3" value="" style="endArrow=classic;html=1;fontSize=20;fontColor=#000000;" parent="1" edge="1">
                    <mxGeometry width="50" height="50" relative="1" as="geometry">
                        <mxPoint x="100" y="407" as="sourcePoint"/>
                        <mxPoint x="100" y="367" as="targetPoint"/>
                    </mxGeometry>
                </mxCell>
                <mxCell id="4" value="" style="endArrow=classic;html=1;fontSize=20;fontColor=#000000;" parent="1" edge="1">
                    <mxGeometry width="50" height="50" relative="1" as="geometry">
                        <mxPoint x="140" y="407" as="sourcePoint"/>
                        <mxPoint x="140" y="367" as="targetPoint"/>
                    </mxGeometry>
                </mxCell>
                <mxCell id="5" value="" style="endArrow=classic;html=1;fontSize=20;fontColor=#000000;" parent="1" edge="1">
                    <mxGeometry width="50" height="50" relative="1" as="geometry">
                        <mxPoint x="180" y="407" as="sourcePoint"/>
                        <mxPoint x="180" y="367" as="targetPoint"/>
                    </mxGeometry>
                </mxCell>
                <mxCell id="6" value="" style="endArrow=classic;html=1;fontSize=20;fontColor=#000000;" parent="1" edge="1">
                    <mxGeometry width="50" height="50" relative="1" as="geometry">
                        <mxPoint x="220" y="407" as="sourcePoint"/>
                        <mxPoint x="220" y="367" as="targetPoint"/>
                    </mxGeometry>
                </mxCell>
                <mxCell id="7" value="" style="endArrow=none;html=1;fontSize=20;fontColor=#000000;endFill=0;entryX=0.104;entryY=-0.051;entryDx=0;entryDy=0;entryPerimeter=0;" parent="1" edge="1" target="15">
                    <mxGeometry width="50" height="50" relative="1" as="geometry">
                        <mxPoint x="99.75999999999999" y="307" as="sourcePoint"/>
                        <mxPoint x="99.75999999999999" y="267" as="targetPoint"/>
                    </mxGeometry>
                </mxCell>
                <mxCell id="8" value="" style="endArrow=none;html=1;fontSize=20;fontColor=#000000;endFill=0;" parent="1" edge="1">
                    <mxGeometry width="50" height="50" relative="1" as="geometry">
                        <mxPoint x="139.76" y="307" as="sourcePoint"/>
                        <mxPoint x="140" y="270" as="targetPoint"/>
                    </mxGeometry>
                </mxCell>
                <mxCell id="9" value="" style="endArrow=none;html=1;fontSize=20;fontColor=#000000;endFill=0;" parent="1" edge="1">
                    <mxGeometry width="50" height="50" relative="1" as="geometry">
                        <mxPoint x="179.76" y="307" as="sourcePoint"/>
                        <mxPoint x="180" y="270" as="targetPoint"/>
                    </mxGeometry>
                </mxCell>
                <mxCell id="10" value="" style="endArrow=none;html=1;fontSize=20;fontColor=#000000;endFill=0;" parent="1" edge="1">
                    <mxGeometry width="50" height="50" relative="1" as="geometry">
                        <mxPoint x="219.76" y="307" as="sourcePoint"/>
                        <mxPoint x="220" y="270" as="targetPoint"/>
                    </mxGeometry>
                </mxCell>
                <mxCell id="11" value="`x_1`" style="text;html=1;strokeColor=none;fillColor=none;align=center;verticalAlign=middle;whiteSpace=wrap;rounded=0;fontSize=16;fontColor=#000000;" parent="1" vertex="1">
                    <mxGeometry x="88" y="402" width="30" height="20" as="geometry"/>
                </mxCell>
                <mxCell id="12" value="`x_2`" style="text;html=1;strokeColor=none;fillColor=none;align=center;verticalAlign=middle;whiteSpace=wrap;rounded=0;fontSize=16;fontColor=#000000;" parent="1" vertex="1">
                    <mxGeometry x="129" y="402" width="30" height="20" as="geometry"/>
                </mxCell>
                <mxCell id="13" value="`x_3`" style="text;html=1;strokeColor=none;fillColor=none;align=center;verticalAlign=middle;whiteSpace=wrap;rounded=0;fontSize=16;fontColor=#000000;" parent="1" vertex="1">
                    <mxGeometry x="169" y="402" width="30" height="20" as="geometry"/>
                </mxCell>
                <mxCell id="14" value="`x_4`" style="text;html=1;strokeColor=none;fillColor=none;align=center;verticalAlign=middle;whiteSpace=wrap;rounded=0;fontSize=16;fontColor=#000000;" parent="1" vertex="1">
                    <mxGeometry x="210" y="402" width="30" height="20" as="geometry"/>
                </mxCell>
                <mxCell id="15" value="`h_1`" style="text;html=1;strokeColor=none;fillColor=none;align=center;verticalAlign=middle;whiteSpace=wrap;rounded=0;fontSize=16;fontColor=#000000;" parent="1" vertex="1">
                    <mxGeometry x="97" y="277" width="30" height="20" as="geometry"/>
                </mxCell>
                <mxCell id="16" value="`h_2`" style="text;html=1;strokeColor=none;fillColor=none;align=center;verticalAlign=middle;whiteSpace=wrap;rounded=0;fontSize=16;fontColor=#000000;" parent="1" vertex="1">
                    <mxGeometry x="138" y="277" width="30" height="20" as="geometry"/>
                </mxCell>
                <mxCell id="17" value="`h_3`" style="text;html=1;strokeColor=none;fillColor=none;align=center;verticalAlign=middle;whiteSpace=wrap;rounded=0;fontSize=16;fontColor=#000000;" parent="1" vertex="1">
                    <mxGeometry x="178" y="277" width="30" height="20" as="geometry"/>
                </mxCell>
                <mxCell id="18" value="`h_4`" style="text;html=1;strokeColor=none;fillColor=none;align=center;verticalAlign=middle;whiteSpace=wrap;rounded=0;fontSize=16;fontColor=#000000;" parent="1" vertex="1">
                    <mxGeometry x="219" y="277" width="30" height="20" as="geometry"/>
                </mxCell>
                <mxCell id="19" value="Decoder" style="rounded=0;whiteSpace=wrap;html=1;fontSize=20;fillColor=#e1d5e7;strokeColor=#9673a6;" parent="1" vertex="1">
                    <mxGeometry x="321" y="307" width="160" height="60" as="geometry"/>
                </mxCell>
                <mxCell id="20" value="" style="endArrow=classic;html=1;fontSize=20;fontColor=#000000;" parent="1" edge="1">
                    <mxGeometry width="50" height="50" relative="1" as="geometry">
                        <mxPoint x="341" y="389.9999999999999" as="sourcePoint"/>
                        <mxPoint x="340.9999999999998" y="366.9999999999999" as="targetPoint"/>
                    </mxGeometry>
                </mxCell>
                <mxCell id="21" value="" style="endArrow=classic;html=1;fontSize=20;fontColor=#000000;" parent="1" edge="1">
                    <mxGeometry width="50" height="50" relative="1" as="geometry">
                        <mxPoint x="381" y="389.9999999999999" as="sourcePoint"/>
                        <mxPoint x="381.0000000000002" y="366.9999999999999" as="targetPoint"/>
                    </mxGeometry>
                </mxCell>
                <mxCell id="22" value="" style="endArrow=classic;html=1;fontSize=20;fontColor=#000000;" parent="1" edge="1">
                    <mxGeometry width="50" height="50" relative="1" as="geometry">
                        <mxPoint x="421" y="389.9999999999999" as="sourcePoint"/>
                        <mxPoint x="421.0000000000002" y="366.9999999999999" as="targetPoint"/>
                    </mxGeometry>
                </mxCell>
                <mxCell id="23" value="" style="endArrow=classic;html=1;fontSize=20;fontColor=#000000;" parent="1" edge="1">
                    <mxGeometry width="50" height="50" relative="1" as="geometry">
                        <mxPoint x="461" y="389.9999999999999" as="sourcePoint"/>
                        <mxPoint x="461.0000000000002" y="366.9999999999999" as="targetPoint"/>
                    </mxGeometry>
                </mxCell>
                <mxCell id="24" value="" style="endArrow=classic;html=1;fontSize=20;fontColor=#000000;" parent="1" edge="1">
                    <mxGeometry width="50" height="50" relative="1" as="geometry">
                        <mxPoint x="340.75999999999976" y="306.9999999999999" as="sourcePoint"/>
                        <mxPoint x="341" y="279.9999999999999" as="targetPoint"/>
                    </mxGeometry>
                </mxCell>
                <mxCell id="25" value="" style="endArrow=classic;html=1;fontSize=20;fontColor=#000000;" parent="1" edge="1">
                    <mxGeometry width="50" height="50" relative="1" as="geometry">
                        <mxPoint x="380.7600000000002" y="306.9999999999999" as="sourcePoint"/>
                        <mxPoint x="381" y="279.9999999999999" as="targetPoint"/>
                    </mxGeometry>
                </mxCell>
                <mxCell id="26" value="" style="endArrow=classic;html=1;fontSize=20;fontColor=#000000;" parent="1" edge="1">
                    <mxGeometry width="50" height="50" relative="1" as="geometry">
                        <mxPoint x="420.7600000000002" y="306.9999999999999" as="sourcePoint"/>
                        <mxPoint x="421" y="279.9999999999999" as="targetPoint"/>
                    </mxGeometry>
                </mxCell>
                <mxCell id="27" value="" style="endArrow=classic;html=1;fontSize=20;fontColor=#000000;" parent="1" edge="1">
                    <mxGeometry width="50" height="50" relative="1" as="geometry">
                        <mxPoint x="460.7600000000002" y="306.9999999999999" as="sourcePoint"/>
                        <mxPoint x="461" y="279.9999999999999" as="targetPoint"/>
                    </mxGeometry>
                </mxCell>
                <mxCell id="28" value="`x`" style="text;html=1;strokeColor=none;fillColor=none;align=center;verticalAlign=middle;whiteSpace=wrap;rounded=0;fontSize=16;fontColor=#000000;" parent="1" vertex="1">
                    <mxGeometry x="326" y="405" width="30" height="20" as="geometry"/>
                </mxCell>
                <mxCell id="29" value="" style="rounded=0;whiteSpace=wrap;html=1;fontSize=10;fillColor=#cdeb8b;strokeColor=#36393d;fontColor=#000000;" parent="1" vertex="1">
                    <mxGeometry x="337" y="390" width="8" height="20" as="geometry"/>
                </mxCell>
                <mxCell id="30" value="" style="rounded=0;whiteSpace=wrap;html=1;fontSize=10;fillColor=#cdeb8b;strokeColor=#36393d;fontColor=#000000;" parent="1" vertex="1">
                    <mxGeometry x="377" y="390" width="8" height="20" as="geometry"/>
                </mxCell>
                <mxCell id="31" value="" style="rounded=0;whiteSpace=wrap;html=1;fontSize=10;fillColor=#cdeb8b;strokeColor=#36393d;fontColor=#000000;" parent="1" vertex="1">
                    <mxGeometry x="417" y="390" width="8" height="20" as="geometry"/>
                </mxCell>
                <mxCell id="32" value="" style="rounded=0;whiteSpace=wrap;html=1;fontSize=10;fillColor=#cdeb8b;strokeColor=#36393d;fontColor=#000000;" parent="1" vertex="1">
                    <mxGeometry x="457" y="390" width="8" height="20" as="geometry"/>
                </mxCell>
                <mxCell id="33" value="" style="rounded=0;whiteSpace=wrap;html=1;fontSize=10;fillColor=#fff2cc;strokeColor=#d6b656;" parent="1" vertex="1">
                    <mxGeometry x="337" y="260" width="8" height="20" as="geometry"/>
                </mxCell>
                <mxCell id="34" value="" style="rounded=0;whiteSpace=wrap;html=1;fontSize=10;fillColor=#fff2cc;strokeColor=#d6b656;" parent="1" vertex="1">
                    <mxGeometry x="377" y="260" width="8" height="20" as="geometry"/>
                </mxCell>
                <mxCell id="35" value="" style="rounded=0;whiteSpace=wrap;html=1;fontSize=10;fillColor=#fff2cc;strokeColor=#d6b656;" parent="1" vertex="1">
                    <mxGeometry x="417" y="260" width="8" height="20" as="geometry"/>
                </mxCell>
                <mxCell id="36" value="" style="rounded=0;whiteSpace=wrap;html=1;fontSize=10;fillColor=#fff2cc;strokeColor=#d6b656;" parent="1" vertex="1">
                    <mxGeometry x="457" y="260" width="8" height="20" as="geometry"/>
                </mxCell>
                <mxCell id="37" value="" style="endArrow=classic;html=1;fontSize=20;fontColor=#000000;" parent="1" edge="1">
                    <mxGeometry width="50" height="50" relative="1" as="geometry">
                        <mxPoint x="340.5799999999997" y="259.9999999999999" as="sourcePoint"/>
                        <mxPoint x="341" y="242.9999999999999" as="targetPoint"/>
                    </mxGeometry>
                </mxCell>
                <mxCell id="38" value="" style="endArrow=classic;html=1;fontSize=20;fontColor=#000000;" parent="1" edge="1">
                    <mxGeometry width="50" height="50" relative="1" as="geometry">
                        <mxPoint x="380.58000000000015" y="259.9999999999999" as="sourcePoint"/>
                        <mxPoint x="381" y="242.9999999999999" as="targetPoint"/>
                    </mxGeometry>
                </mxCell>
                <mxCell id="39" value="" style="endArrow=classic;html=1;fontSize=20;fontColor=#000000;" parent="1" edge="1">
                    <mxGeometry width="50" height="50" relative="1" as="geometry">
                        <mxPoint x="420.58000000000015" y="259.9999999999999" as="sourcePoint"/>
                        <mxPoint x="421" y="242.9999999999999" as="targetPoint"/>
                    </mxGeometry>
                </mxCell>
                <mxCell id="40" value="" style="endArrow=classic;html=1;fontSize=20;fontColor=#000000;" parent="1" edge="1">
                    <mxGeometry width="50" height="50" relative="1" as="geometry">
                        <mxPoint x="460.58000000000015" y="259.9999999999999" as="sourcePoint"/>
                        <mxPoint x="461" y="242.9999999999999" as="targetPoint"/>
                    </mxGeometry>
                </mxCell>
                <mxCell id="41" style="edgeStyle=none;html=1;exitX=1;exitY=0.5;exitDx=0;exitDy=0;entryX=0;entryY=0.5;entryDx=0;entryDy=0;dashed=1;fontColor=#000000;" parent="1" source="42" target="47" edge="1">
                    <mxGeometry relative="1" as="geometry">
                        <mxPoint x="372" y="440" as="targetPoint"/>
                        <Array as="points">
                            <mxPoint x="362" y="238"/>
                            <mxPoint x="362" y="417"/>
                        </Array>
                    </mxGeometry>
                </mxCell>
                <mxCell id="42" value="" style="whiteSpace=wrap;html=1;aspect=fixed;fillColor=#ffcccc;strokeColor=#36393d;fontColor=#000000;" parent="1" vertex="1">
                    <mxGeometry x="336" y="233" width="10" height="10" as="geometry"/>
                </mxCell>
                <mxCell id="43" value="" style="whiteSpace=wrap;html=1;aspect=fixed;fillColor=#f9f7ed;strokeColor=#36393d;fontColor=#000000;" parent="1" vertex="1">
                    <mxGeometry x="376" y="233" width="10" height="10" as="geometry"/>
                </mxCell>
                <mxCell id="44" value="" style="whiteSpace=wrap;html=1;aspect=fixed;fillColor=#cce5ff;strokeColor=#36393d;fontColor=#000000;" parent="1" vertex="1">
                    <mxGeometry x="416" y="233" width="10" height="10" as="geometry"/>
                </mxCell>
                <mxCell id="45" value="" style="whiteSpace=wrap;html=1;aspect=fixed;fillColor=#ffff88;strokeColor=#36393d;fontColor=#000000;" parent="1" vertex="1">
                    <mxGeometry x="456" y="233" width="10" height="10" as="geometry"/>
                </mxCell>
                <mxCell id="46" style="edgeStyle=none;html=1;exitX=0;exitY=0.5;exitDx=0;exitDy=0;fontColor=#000000;" parent="1" source="47" edge="1">
                    <mxGeometry relative="1" as="geometry">
                        <mxPoint x="375.986301369863" y="417.0091324200913" as="targetPoint"/>
                    </mxGeometry>
                </mxCell>
                <mxCell id="47" value="" style="whiteSpace=wrap;html=1;aspect=fixed;fillColor=#ffcccc;strokeColor=#36393d;fontColor=#000000;" parent="1" vertex="1">
                    <mxGeometry x="376" y="412" width="10" height="10" as="geometry"/>
                </mxCell>
                <mxCell id="48" value="" style="whiteSpace=wrap;html=1;aspect=fixed;fillColor=#f9f7ed;strokeColor=#36393d;fontColor=#000000;" parent="1" vertex="1">
                    <mxGeometry x="416" y="412" width="10" height="10" as="geometry"/>
                </mxCell>
                <mxCell id="49" value="" style="whiteSpace=wrap;html=1;aspect=fixed;fillColor=#cce5ff;strokeColor=#36393d;fontColor=#000000;" parent="1" vertex="1">
                    <mxGeometry x="456" y="412" width="10" height="10" as="geometry"/>
                </mxCell>
                <mxCell id="50" style="edgeStyle=none;html=1;exitX=1;exitY=0.5;exitDx=0;exitDy=0;entryX=0;entryY=0.5;entryDx=0;entryDy=0;dashed=1;fontColor=#000000;" parent="1" edge="1">
                    <mxGeometry relative="1" as="geometry">
                        <mxPoint x="416" y="416.9999999999999" as="targetPoint"/>
                        <mxPoint x="386" y="237.9999999999999" as="sourcePoint"/>
                        <Array as="points">
                            <mxPoint x="402" y="238"/>
                            <mxPoint x="402" y="417"/>
                        </Array>
                    </mxGeometry>
                </mxCell>
                <mxCell id="51" style="edgeStyle=none;html=1;exitX=1;exitY=0.5;exitDx=0;exitDy=0;entryX=0;entryY=0.5;entryDx=0;entryDy=0;dashed=1;fontColor=#000000;" parent="1" edge="1">
                    <mxGeometry relative="1" as="geometry">
                        <mxPoint x="456" y="416.9999999999999" as="targetPoint"/>
                        <mxPoint x="426" y="237.9999999999999" as="sourcePoint"/>
                        <Array as="points">
                            <mxPoint x="442" y="238"/>
                            <mxPoint x="442" y="417"/>
                        </Array>
                    </mxGeometry>
                </mxCell>
                <mxCell id="52" value="" style="endArrow=classic;html=1;fontColor=#000000;" parent="1" edge="1">
                    <mxGeometry width="50" height="50" relative="1" as="geometry">
                        <mxPoint x="275" y="336.9999999999999" as="sourcePoint"/>
                        <mxPoint x="321" y="336.9" as="targetPoint"/>
                    </mxGeometry>
                </mxCell>
                <mxCell id="53" value="Encoder" style="text;html=1;strokeColor=none;fillColor=none;align=center;verticalAlign=middle;whiteSpace=wrap;rounded=0;fontSize=10;fontColor=#000000;" parent="1" vertex="1">
                    <mxGeometry x="264" y="321" width="47" height="20" as="geometry"/>
                </mxCell>
                <mxCell id="55" value="" style="endArrow=none;html=1;entryX=-0.005;entryY=0.499;entryDx=0;entryDy=0;entryPerimeter=0;exitX=0.097;exitY=0.062;exitDx=0;exitDy=0;exitPerimeter=0;" parent="1" edge="1" source="15">
                    <mxGeometry width="50" height="50" relative="1" as="geometry">
                        <mxPoint x="100" y="267" as="sourcePoint"/>
                        <mxPoint x="323.20000000000005" y="336.93999999999994" as="targetPoint"/>
                        <Array as="points">
                            <mxPoint x="100" y="270"/>
                            <mxPoint x="260" y="270"/>
                            <mxPoint x="260" y="337"/>
                        </Array>
                    </mxGeometry>
                </mxCell>
            </root>
        </mxGraphModel>
    </diagram>
</mxfile>